<svg width="80" height="74" viewBox="0 0 80 74" fill="none" xmlns="http://www.w3.org/2000/svg">
<path d="M76.8689 0.73172H3.13109C1.40469 0.73172 0 2.13625 0 3.86281V15.2206C0 17.7283 1.31594 19.933 3.29234 21.1847V36.3881C3.29234 37.2528 3.99328 37.9538 4.85797 37.9538C5.72266 37.9538 6.42359 37.2528 6.42359 36.3881V22.2469C6.63219 22.2655 6.84281 22.2767 7.05625 22.2767C9.2725 22.2767 11.2523 21.2488 12.5469 19.6456C13.8414 21.2488 15.8212 22.2767 18.0375 22.2767C20.2537 22.2767 22.2336 21.2488 23.5281 19.6456C24.8227 21.2488 26.8025 22.2767 29.0187 22.2767C30.4705 22.2767 31.8208 21.8356 32.9437 21.0811V70.1344L6.42344 70.1327V50.4972C6.42344 49.6325 5.7225 48.9316 4.85781 48.9316C3.99312 48.9316 3.29219 49.6325 3.29219 50.4972V70.1327C3.29219 71.8617 4.69875 73.2683 6.42781 73.2683H73.5941C75.3231 73.2683 76.7298 71.8617 76.7298 70.1327V21.1703C78.6938 19.9161 79.9998 17.7188 79.9998 15.2206V3.86281C80 2.13625 78.5955 0.73172 76.8689 0.73172ZM65.8877 15.2206C65.8877 17.3848 64.1269 19.1456 61.9627 19.1456C59.7983 19.1456 58.0375 17.3848 58.0375 15.2206V3.86281H65.8878V15.2206H65.8877ZM54.9062 15.2206C54.9062 17.3848 53.1455 19.1456 50.9813 19.1456C48.817 19.1456 47.0563 17.3848 47.0563 15.2206V3.86281H54.9062V15.2206ZM43.925 15.2206C43.925 17.3848 42.1642 19.1456 40 19.1456C37.8358 19.1456 36.075 17.3848 36.075 15.2206V3.86281H43.9252V15.2206H43.925ZM7.05609 19.1456C4.89188 19.1456 3.13109 17.3848 3.13109 15.2206V3.86281H10.9812V15.2206C10.9812 17.3848 9.22047 19.1456 7.05609 19.1456ZM18.0375 19.1456C15.8733 19.1456 14.1125 17.3848 14.1125 15.2206V3.86281H21.9627V15.2206C21.9625 17.3848 20.2017 19.1456 18.0375 19.1456ZM29.0187 19.1456C26.8544 19.1456 25.0936 17.3848 25.0936 15.2206V3.86281H32.9437V15.2206C32.9439 17.3848 31.183 19.1456 29.0187 19.1456ZM36.075 70.1347V60.7083H73.5953L73.5944 70.1372L36.075 70.1347ZM73.5955 57.5772H36.075V21.0811C37.198 21.8356 38.5484 22.2767 40 22.2767C42.2163 22.2767 44.1961 21.2488 45.4906 19.6456C46.7852 21.2488 48.765 22.2767 50.9813 22.2767C53.1975 22.2767 55.1773 21.2488 56.4719 19.6456C57.7664 21.2488 59.7463 22.2767 61.9627 22.2767C64.1789 22.2767 66.1587 21.2488 67.4533 19.6456C68.7478 21.2488 70.7277 22.2767 72.9439 22.2767C73.1648 22.2767 73.3831 22.2652 73.5989 22.2452L73.5955 57.5772ZM76.8689 15.2206C76.8689 17.3848 75.1081 19.1456 72.9439 19.1456C70.7797 19.1456 69.0189 17.3848 69.0189 15.2206V3.86281H76.8691V15.2206H76.8689Z" fill="#323232"/>
<path d="M27.2283 45.0514C28.093 45.0514 28.7939 44.3505 28.7939 43.4858C28.7939 42.6211 28.093 41.9202 27.2283 41.9202H22.8508C21.9861 41.9202 21.2852 42.6211 21.2852 43.4858C21.2852 44.3505 21.9861 45.0514 22.8508 45.0514H27.2283Z" fill="#323232"/>
<path d="M65.4379 39.2239C65.4093 38.9261 65.2984 38.5788 65.0229 38.2845L57.8073 30.5609C57.1913 29.9014 56.3202 29.5231 55.4176 29.5231C55.4174 29.5231 55.4176 29.5231 55.4174 29.5231C54.5149 29.5231 53.6438 29.9014 53.0274 30.5609L45.812 38.2847C45.5827 38.5414 45.3891 38.9036 45.3904 39.3534V48.2752C45.3904 50.0016 46.7949 51.4063 48.5215 51.4063H62.313C64.0396 51.4063 65.4441 50.0016 65.4441 48.2752V39.3534C65.4424 39.3039 65.4427 39.3186 65.4379 39.2239ZM55.3155 32.6984C55.3259 32.6875 55.357 32.6542 55.4176 32.6542C55.478 32.6542 55.509 32.6874 55.5193 32.6984L60.2738 37.7878H50.5612L55.3155 32.6984ZM62.3132 48.275H48.5216V40.9188H62.3135L62.3152 48.2749C62.3152 48.2749 62.3146 48.275 62.3132 48.275Z" fill="#323232"/>
<path d="M4.85786 45.0514C5.72253 45.0514 6.42349 44.3505 6.42349 43.4858C6.42349 42.6211 5.72253 41.9202 4.85786 41.9202C3.99319 41.9202 3.29224 42.6211 3.29224 43.4858C3.29224 44.3505 3.99319 45.0514 4.85786 45.0514Z" fill="#323232"/>
</svg>
